<svg width="322" height="322" viewBox="0 0 322 322" fill="none" xmlns="http://www.w3.org/2000/svg">
  <path d="M299.33 161H320" stroke="white" stroke-width="6" />
  <path d="M297.984 180.252L318.453 183.129" stroke="white" stroke-width="6" />
  <path d="M293.971 199.129L313.841 204.826" stroke="white" stroke-width="6" />
  <path d="M287.371 217.264L306.254 225.671" stroke="white" stroke-width="6" />
  <path d="M278.311 234.304L295.84 245.257" stroke="white" stroke-width="6" />
  <path d="M266.967 249.917L282.801 263.203" stroke="white" stroke-width="6" />
  <path d="M253.561 263.799L267.392 279.16" stroke="white" stroke-width="6" />
  <path d="M238.353 275.681L249.912 292.817" stroke="white" stroke-width="6" />
  <path d="M221.64 285.33L230.701 303.908" stroke="white" stroke-width="6" />
  <path d="M203.746 292.56L210.134 312.218" stroke="white" stroke-width="6" />
  <path d="M185.021 297.228L188.61 317.584" stroke="white" stroke-width="6" />
  <path d="M165.828 299.246L166.549 319.903" stroke="white" stroke-width="6" />
  <path d="M146.54 298.572L144.38 319.129" stroke="white" stroke-width="6" />
  <path d="M127.535 295.221L122.534 315.277" stroke="white" stroke-width="6" />
  <path d="M109.181 289.257L101.438 308.422" stroke="white" stroke-width="6" />
  <path d="M91.835 280.797L81.5 298.698" stroke="white" stroke-width="6" />
  <path d="M75.8356 270.006L63.1099 286.294" stroke="white" stroke-width="6" />
  <path d="M61.4938 257.092L46.625 271.451" stroke="white" stroke-width="6" />
  <path d="M49.0886 242.308L32.3662 254.458" stroke="white" stroke-width="6" />
  <path d="M38.8617 225.942L20.6112 235.646" stroke="white" stroke-width="6" />
  <path d="M31.0123 208.312L11.5889 215.381" stroke="white" stroke-width="6" />
  <path d="M25.6929 189.76L5.47461 194.058" stroke="white" stroke-width="6" />
  <path d="M23.0071 170.649L2.38745 172.091" stroke="white" stroke-width="6" />
  <path d="M23.0071 151.351L2.38745 149.909" stroke="white" stroke-width="6" />
  <path d="M25.6929 132.24L5.47461 127.942" stroke="white" stroke-width="6" />
  <path d="M31.0123 113.688L11.5889 106.619" stroke="white" stroke-width="6" />
  <path d="M38.8617 96.058L20.6112 86.354" stroke="white" stroke-width="6" />
  <path d="M49.0886 79.6917L32.3662 67.5421" stroke="white" stroke-width="6" />
  <path d="M61.4938 64.9079L46.625 50.5493" stroke="white" stroke-width="6" />
  <path d="M75.8356 51.9945L63.1099 35.7063" stroke="white" stroke-width="6" />
  <path d="M91.835 41.2027L81.5 23.302" stroke="white" stroke-width="6" />
  <path d="M109.181 32.7426L101.438 13.5778" stroke="white" stroke-width="6" />
  <path d="M127.535 26.779L122.534 6.72299" stroke="white" stroke-width="6" />
  <path d="M146.54 23.4278L144.38 2.87103" stroke="white" stroke-width="6" />
  <path d="M165.828 22.7543L166.549 2.09686" stroke="white" stroke-width="6" />
  <path d="M185.021 24.7715L188.61 4.41556" stroke="white" stroke-width="6" />
  <path d="M203.746 29.4403L210.134 9.78201" stroke="white" stroke-width="6" />
  <path d="M221.64 36.6698L230.701 18.0918" stroke="white" stroke-width="6" />
  <path d="M238.353 46.3193L249.912 29.183" stroke="white" stroke-width="6" />
  <path d="M253.561 58.2008L267.392 42.84" stroke="white" stroke-width="6" />
  <path d="M266.967 72.0832L282.801 58.7968" stroke="white" stroke-width="6" />
  <path d="M278.311 87.6963L295.84 76.7428" stroke="white" stroke-width="6" />
  <path d="M287.371 104.736L306.254 96.3289" stroke="white" stroke-width="6" />
  <path d="M293.971 122.871L313.841 117.174" stroke="white" stroke-width="6" />
  <path d="M297.984 141.748L318.453 138.871" stroke="white" stroke-width="6" />
  <path
    d="M161 299.33C237.398 299.33 299.33 237.398 299.33 161C299.33 84.6025 237.398 22.67 161 22.67C84.6025 22.67 22.67 84.6025 22.67 161C22.67 237.398 84.6025 299.33 161 299.33Z"
    stroke="white" stroke-width="6" />
  <path
    d="M161 320C248.813 320 320 248.813 320 161C320 73.1867 248.813 2 161 2C73.1867 2 2 73.1867 2 161C2 248.813 73.1867 320 161 320Z"
    stroke="white" stroke-width="6" />
</svg>
